<svg xmlns="http://www.w3.org/2000/svg" width="25" height="33.34" viewBox="0 0 25 33.34"><defs><style>.a{fill:#707070;}</style></defs><path class="a" d="M24.082,6.28,18.62.818A3.125,3.125,0,0,0,16.413-.1H3.125A3.136,3.136,0,0,0,0,3.032V30.115A3.126,3.126,0,0,0,3.125,33.24h18.75A3.126,3.126,0,0,0,25,30.115V8.494a3.14,3.14,0,0,0-.918-2.214ZM21.621,8.24H16.667V3.285ZM3.125,30.115V3.032H13.542V9.8A1.559,1.559,0,0,0,15.1,11.365h6.771v18.75Zm16.289-9.355c-.794-.781-3.06-.566-4.193-.423a5.646,5.646,0,0,1-2.4-3.014,8.188,8.188,0,0,0,.352-3.646,1.451,1.451,0,0,0-2.773-.384,9.377,9.377,0,0,0,.456,4.368,52.278,52.278,0,0,1-2.3,4.844c-1.3.671-3.06,1.706-3.32,3.008-.215,1.029,1.693,3.594,4.954-2.031a32.278,32.278,0,0,1,4.453-1.309,8.662,8.662,0,0,0,3.633,1.107A1.5,1.5,0,0,0,19.414,20.759Zm-12.9,5.065A7.807,7.807,0,0,1,8.5,23.546C7.259,25.518,6.517,25.87,6.517,25.824Zm5.312-12.409c.482,0,.436,2.09.117,2.656A5.459,5.459,0,0,1,11.829,13.416Zm-1.589,8.893a25.555,25.555,0,0,0,1.608-3.561,7.173,7.173,0,0,0,1.96,2.311A22.027,22.027,0,0,0,10.241,22.309Zm8.568-.326s-.326.391-2.428-.508C18.665,21.306,19.043,21.827,18.809,21.983Z" transform="translate(0 0.1)"/></svg>