<svg xmlns="http://www.w3.org/2000/svg" width="31.34" height="35.95" viewBox="0 0 31.34 35.95"><defs><style>.a{fill:#333;}.b{fill:#ff4c3e;}.c{fill:#fff;}</style></defs><g transform="translate(-349.456 -3541.43)"><path class="a" d="M459.4,3264.23l-5.4-6.16a1.867,1.867,0,0,0-1.4-.64H434.27a1.863,1.863,0,0,0-1.86,1.86v32.23a1.857,1.857,0,0,0,1.86,1.86H458a1.865,1.865,0,0,0,1.87-1.86v-26.07A1.863,1.863,0,0,0,459.4,3264.23Zm-6.76-4.9,5.22,5.96h-5.22Zm5.36,32.2H434.27V3259.3h16.5v6a1.867,1.867,0,0,0,1.87,1.87H458Z" transform="translate(-79.074 284)"/><path class="b" d="M447.18,3265.09v6.42a1.129,1.129,0,0,1-1.13,1.13H429.66a1.135,1.135,0,0,1-1.13-1.13v-6.42a1.135,1.135,0,0,1,1.13-1.13h16.39A1.128,1.128,0,0,1,447.18,3265.09Z" transform="translate(-79.074 284)"/><path class="a" d="M453.66,3276.77H438.61a.95.95,0,0,1-.95-.95h0a.95.95,0,0,1,.95-.95h15.05a.95.95,0,0,1,.95.95h0A.943.943,0,0,1,453.66,3276.77Z" transform="translate(-79.074 284)"/><path class="a" d="M453.66,3280.84H438.61a.95.95,0,0,1-.95-.95h0a.95.95,0,0,1,.95-.95h15.05a.95.95,0,0,1,.95.95h0A.95.95,0,0,1,453.66,3280.84Z" transform="translate(-79.074 284)"/><g transform="translate(-79.074 284)"><path class="c" d="M434.27,3265.82a2.557,2.557,0,0,0-.49-.04H431.7v4.81h1.05v-1.73h1.08a2.117,2.117,0,0,0,.44-.04,1.521,1.521,0,0,0,0-3Zm0,2.08a1.04,1.04,0,0,1-.58.14h-.94v-1.39h.95a.916.916,0,0,1,.57.15.73.73,0,0,1,0,1.1Z"/><path class="c" d="M438.16,3265.78h-1.95v4.81h1.95a2.406,2.406,0,0,0,0-4.81Zm-.13,3.94h-.77v-3.06h.77c.95,0,1.4.56,1.4,1.53S439,3269.72,438.03,3269.72Z"/><path class="c" d="M444.62,3266.67v-.89h-3.39v4.81h1.05v-1.97h2.04v-.84h-2.04v-1.12h2.34Z"/></g><path class="a" d="M453.66,3284.9H438.61a.95.95,0,0,1-.95-.95h0a.95.95,0,0,1,.95-.95h15.05a.95.95,0,0,1,.95.95h0A.95.95,0,0,1,453.66,3284.9Z" transform="translate(-79.074 284)"/><path class="a" d="M453.66,3288.96H438.61a.95.95,0,0,1-.95-.95h0a.95.95,0,0,1,.95-.95h15.05a.95.95,0,0,1,.95.95h0A.95.95,0,0,1,453.66,3288.96Z" transform="translate(-79.074 284)"/></g></svg>